# xmcd CD database file
#
# Track frame offsets:
#	150
#	20723
#	39337
#	56854
#	69000
#	90370
#	101021
#	113867
#
# Disc length: 1739 seconds
#
# Revision: 0
# Processed by: cddbd v1.5.2PL0 Copyright (c) Steve Scherf et al.
# Submitted via: CDex 1.70beta2
#
DISCID=5f06c908
DTITLE=B. Brown - Viva Smile
DYEAR=2003
DGENRE=Blues
TTITLE0=Always Smile
TTITLE1=The Commodores - Your Smile
TTITLE2=Eddie Floyd - I Got A ReasonTo Smile 
TTITLE3=Johnny Comare - The Shadow Of Your Smile
TTITLE4=Eelco Gelling And The Blues Connection - Distant Smile
TTITLE5=Jimmy Lunceford - Keep Smilin', Keep Laughin', Be Happy
TTITLE6=Nat King Cole - Smile
TTITLE7=Confetti's - Keep Smiling
EXTD=YEAR: 2003
EXTT0=
EXTT1=
EXTT2=
EXTT3=
EXTT4=
EXTT5=
EXTT6=
EXTT7=
PLAYORDER=
